<svg xmlns="http://www.w3.org/2000/svg" width="5.6in" height="5.6in" viewBox="0 0 403.21 403.21">
  <title>bg-pattern-2</title>
  <g>
    <polygon points="82.13 211.24 75.94 211.24 78.42 217.47 84.7 217.47 82.13 211.24"/>
    <circle cx="250.91" cy="284.06" r="2.63"/>
    <path d="M153.31,291.44c.43,1.15-.37,2.65-2.16,3.81l-4,2.6c-1.56,1-2,2.67-1.16,4l.74,1.14,1-.65-.12-.18c-.63-1-.25-1.92,1.13-2.81l4-2.56c2.11-1.36,2.45-2.8,2.11-3.62l.64-.41c.46.48,1.91,1,4.14-.42l4-2.6c1.36-.88,2.37-.84,3,.14l.12.18,1-.65-.74-1.14c-.88-1.36-2.59-1.6-4.15-.59l-4,2.62c-1.72,1.11-3.42,1.21-4.28.36Z" fill="#231f20"/>
    <path d="M112.81,32.42c-.79.94-2.48,1-4.38,0l-4.25-2.19c-1.66-.85-3.33-.44-4.07,1l-.62,1.21,1.06.55.1-.19c.53-1,1.54-1.17,3-.42l4.19,2.16c2.23,1.15,3.65.73,4.19,0l.67.35c-.19.64.06,2.16,2.43,3.38l4.25,2.19c1.44.74,1.9,1.64,1.37,2.67l-.1.19,1.06.55.62-1.21c.74-1.44.1-3-1.55-3.89l-4.28-2.21c-1.82-.94-2.75-2.36-2.44-3.54Z"/>
    <polygon points="154.63 209.15 168.21 207.69 162.28 218.18 154.63 209.15" fill="none" stroke="#000" stroke-miterlimit="10" stroke-width="2.25"/>
    <line x1="19.18" y1="375.49" x2="34.65" y2="385.49" fill="none" stroke="#000" stroke-miterlimit="10" stroke-width="2.25"/>
    <line x1="250.7" y1="170.99" x2="264.45" y2="183.74" fill="none" stroke="#000" stroke-miterlimit="10" stroke-width="2.25"/>
    <line x1="250.7" y1="362.24" x2="255.45" y2="380.49" fill="none" stroke="#000" stroke-miterlimit="10" stroke-width="2.25"/>
    <line x1="399.95" y1="264.74" x2="399.95" y2="275.24" fill="none" stroke="#000" stroke-miterlimit="10" stroke-width="2.25"/>
    <rect x="355.45" y="322.99" width="12.88" height="12.88" transform="translate(-125.11 281.28) rotate(-36.67)" fill="none" stroke="#000" stroke-miterlimit="10" stroke-width="2.25"/>
    <rect x="376.57" y="123.86" width="9.75" height="24.69" transform="translate(-21.46 94.71) rotate(-13.77)" fill="none" stroke="#000" stroke-miterlimit="10" stroke-width="2.25"/>
    <polygon points="222.18 115.53 215.6 108.82 218.12 99.77 227.22 97.42 233.8 104.13 231.28 113.19 222.18 115.53" fill="none" stroke="#000" stroke-miterlimit="10" stroke-width="2.25"/>
  </g>
</svg>
