<svg xmlns="http://www.w3.org/2000/svg" width="5.6in" height="5.6in" viewBox="0 0 403.21 403.21">
  <title>bg-pattern-3</title>
  <g>
    <circle cx="80.85" cy="355.81" r="3.66"/>
    <rect x="217.19" y="31.24" width="6" height="6"/>
    <path d="M359.05,368.41l-.62-1.21-1.06.54.1.19c.53,1,.05,1.93-1.41,2.68l-4.2,2.14c-2.24,1.14-2.73,2.54-2.47,3.39l-.67.34c-.4-.53-1.79-1.21-4.16,0l-4.26,2.17c-1.44.74-2.45.59-3-.44l-.1-.19-1.06.54.62,1.21c.74,1.44,2.41,1.86,4.07,1l4.29-2.19c1.83-.93,3.52-.85,4.3.08l1.26-.64c-.31-1.19.64-2.6,2.54-3.57l4.26-2.17C359.15,371.45,359.79,369.86,359.05,368.41Z"/>
    <polygon points="2.89 4.68 2.12 23.6 16.82 11.22 2.89 4.68" fill="none" stroke="#000" stroke-miterlimit="10" stroke-width="2.25"/>
    <polyline points="113.98 99.56 113.98 116.06 97.67 116.06" fill="none" stroke="#000" stroke-miterlimit="10" stroke-width="2.25"/>
    <circle cx="281.1" cy="209.12" r="5.25" fill="none" stroke="#000" stroke-miterlimit="10" stroke-width="2.25"/>
    <polygon points="373.95 54.68 372.27 60.31 377.89 63.12 380.24 56.18 373.95 54.68"/>
  </g>
</svg>
