<svg xmlns="http://www.w3.org/2000/svg" width="5.6in" height="5.6in" viewBox="0 0 403.21 403.21">
  <title>bg-pattern-1</title>
  <polygon points="166.24 138.84 165.91 145.4 170.32 143.54 166.24 138.84"/>
  <polygon points="306.28 107.67 302.81 108.4 304.53 100.16 299.37 102.61 299.08 111.52 301.34 111.46 301.09 122.34 306.28 107.67"/>
  <polygon points="349.26 200.8 338.52 191.51 338.52 206.01 342.2 202.24 342.2 202.24 345.54 209.27 347.55 208.34 344.2 201.28 349.26 200.8" fill-rule="evenodd"/>
  <circle cx="58.62" cy="284.15" r="10.13" fill="none" stroke="#000" stroke-miterlimit="10" stroke-width="2.25"/>
  <path d="M290.74,29.21a9.38,9.38,0,0,1,17.91-5.53" fill="none" stroke="#000" stroke-miterlimit="10" stroke-width="2.25"/>
  <polygon points="157.87 400.51 148.32 388.48 155.94 375.15 165.49 387.18 157.87 400.51" fill="none" stroke="#000" stroke-miterlimit="10" stroke-width="2.25"/>
  <polygon points="258.49 305.65 268.99 305.65 268.99 281.65 258.49 305.65" fill="none" stroke="#000" stroke-miterlimit="10" stroke-width="2.25"/>
  <line x1="35.18" y1="83.27" x2="22.2" y2="95.46" fill="none" stroke="#000" stroke-miterlimit="10" stroke-width="2.25"/>
</svg>
